#define silkscreen_width 240
#define silkscreen_height 48
static char silkscreen_bits[] = {
  0x00, 0x00, 0x00, 0x00, 0x00, 0x00, 0x00, 0x00, 0x00, 0x00, 0x00, 0x00, 
  0x00, 0x00, 0x00, 0x00, 0x00, 0x00, 0x00, 0x00, 0x00, 0x00, 0x00, 0x00, 
  0x00, 0x00, 0x00, 0x00, 0x00, 0x00, 0x00, 0x00, 0x00, 0x00, 0x00, 0x00, 
  0x00, 0x00, 0x00, 0x00, 0x00, 0x00, 0x00, 0x00, 0x00, 0x00, 0x00, 0x00, 
  0x00, 0x00, 0x00, 0x00, 0x00, 0x00, 0x00, 0x00, 0x00, 0x00, 0x00, 0x00, 
  0x00, 0x00, 0x00, 0x00, 0x00, 0x00, 0x00, 0x00, 0x00, 0x00, 0x00, 0x00, 
  0x00, 0x00, 0x80, 0x01, 0x00, 0x00, 0x00, 0x00, 0x00, 0x00, 0x00, 0x00, 
  0x00, 0x00, 0x00, 0x06, 0x00, 0x00, 0x00, 0x00, 0x00, 0x00, 0x00, 0x00, 
  0x00, 0x00, 0x00, 0x00, 0x00, 0x00, 0x00, 0x00, 0xC0, 0x03, 0x00, 0x00, 
  0x00, 0x00, 0x00, 0x00, 0x00, 0x00, 0x00, 0x00, 0x00, 0x06, 0x08, 0x00, 
  0x00, 0x00, 0x00, 0x00, 0x00, 0x00, 0x00, 0x00, 0x00, 0x00, 0x00, 0x00, 
  0x00, 0x00, 0xE0, 0x07, 0x00, 0x00, 0x00, 0x00, 0x00, 0x00, 0x00, 0x00, 
  0x00, 0x00, 0x00, 0x00, 0x1C, 0x00, 0x00, 0xC0, 0x0F, 0x00, 0x00, 0x00, 
  0xC0, 0x00, 0x00, 0x00, 0x00, 0x00, 0x00, 0x00, 0xF0, 0x0F, 0x00, 0x00, 
  0x08, 0x00, 0x00, 0x00, 0x00, 0x00, 0x00, 0x00, 0x06, 0x00, 0x06, 0x00, 
  0x00, 0xF8, 0x1F, 0x00, 0x00, 0xC0, 0xF0, 0x07, 0x00, 0x00, 0x00, 0x00, 
  0x00, 0x00, 0xF8, 0x1F, 0x00, 0x00, 0x0E, 0x00, 0x00, 0x00, 0x80, 0x0F, 
  0x00, 0x00, 0x0E, 0x00, 0x01, 0x00, 0x00, 0x1F, 0xB0, 0x1F, 0x00, 0xC0, 
  0x0F, 0x08, 0x00, 0x00, 0x00, 0x0F, 0x00, 0x00, 0xFC, 0x3F, 0x00, 0x80, 
  0x07, 0x00, 0x00, 0x00, 0xE0, 0x3F, 0x00, 0x00, 0x08, 0x1E, 0x00, 0x00, 
  0xC0, 0x03, 0xFC, 0x3F, 0x00, 0x78, 0x00, 0x10, 0x00, 0x00, 0xE0, 0x7F, 
  0x00, 0x00, 0xFE, 0x7F, 0x00, 0xE0, 0x7F, 0x00, 0x00, 0x00, 0x70, 0x70, 
  0x00, 0x00, 0x80, 0x7F, 0x00, 0x00, 0x70, 0x80, 0x1F, 0x30, 0x00, 0x1C, 
  0x40, 0x20, 0x00, 0x00, 0xFE, 0xFE, 0x03, 0x00, 0xFF, 0xFF, 0x00, 0xF0, 
  0xFF, 0x01, 0x00, 0x00, 0x38, 0xE0, 0x00, 0x00, 0xC0, 0xC1, 0x00, 0x00, 
  0x30, 0xF0, 0x01, 0x60, 0x00, 0x38, 0xE0, 0x40, 0x00, 0xC0, 0x1F, 0xFE, 
  0x1F, 0x80, 0xFF, 0xFF, 0x01, 0x80, 0xC7, 0x03, 0x00, 0x00, 0x18, 0xC0, 
  0x00, 0x00, 0xC0, 0x80, 0x71, 0x00, 0x30, 0x38, 0x00, 0x60, 0x00, 0x7C, 
  0xE0, 0x81, 0x00, 0xC0, 0x03, 0xFE, 0x3F, 0x80, 0xFF, 0xFF, 0x01, 0x00, 
  0x0E, 0x07, 0x00, 0x00, 0x0C, 0x80, 0x01, 0x00, 0x60, 0x80, 0x79, 0x00, 
  0x60, 0x18, 0x00, 0x60, 0x00, 0xEE, 0x80, 0x03, 0x01, 0x40, 0x0F, 0xFE, 
  0x36, 0x00, 0xF0, 0x0F, 0x00, 0x00, 0x08, 0x06, 0x00, 0x00, 0x0C, 0x80, 
  0x01, 0x80, 0x61, 0xB0, 0x01, 0x00, 0x60, 0x10, 0x00, 0xC0, 0x00, 0xDC, 
  0x00, 0x07, 0x02, 0x40, 0x38, 0xDE, 0x31, 0x00, 0xF0, 0x0F, 0x00, 0x00, 
  0x00, 0x04, 0x00, 0x00, 0x0C, 0x90, 0x01, 0x80, 0x63, 0xB0, 0x01, 0x00, 
  0xC0, 0x30, 0x00, 0xC0, 0x00, 0xB8, 0x01, 0x03, 0x04, 0x40, 0xE0, 0x33, 
  0x30, 0x00, 0x00, 0x00, 0x00, 0x00, 0x00, 0x00, 0x00, 0x00, 0x0C, 0x90, 
  0x01, 0x00, 0x60, 0x9C, 0x00, 0x00, 0xC0, 0x3C, 0x00, 0xC6, 0x00, 0xF0, 
  0x03, 0x00, 0x0C, 0x40, 0x0C, 0x0F, 0x30, 0x00, 0x00, 0x00, 0x00, 0x80, 
  0x7F, 0x04, 0x00, 0x00, 0x0C, 0x98, 0x01, 0x00, 0xC0, 0xCC, 0x00, 0x00, 
  0x80, 0x3F, 0x18, 0xC6, 0x00, 0x60, 0x03, 0xC0, 0x0F, 0x40, 0x3C, 0x04, 
  0x30, 0x00, 0x00, 0x00, 0x00, 0xE0, 0xFF, 0x01, 0x00, 0x00, 0x18, 0xCE, 
  0x00, 0x00, 0xC0, 0x61, 0x00, 0x00, 0x80, 0x67, 0x18, 0xE4, 0x00, 0xE0, 
  0x06, 0xF8, 0x03, 0x40, 0x78, 0x04, 0x30, 0x00, 0x00, 0x00, 0x00, 0xE0, 
  0xC0, 0x03, 0x00, 0x00, 0x38, 0xE0, 0x00, 0x00, 0x80, 0x33, 0x00, 0x00, 
  0x00, 0x60, 0x90, 0x7F, 0x00, 0xC0, 0x0D, 0x1F, 0x07, 0xC0, 0x00, 0x04, 
  0x30, 0x00, 0xC0, 0x03, 0x00, 0xE0, 0x03, 0x07, 0x00, 0x00, 0x70, 0x70, 
  0x00, 0x00, 0x00, 0x13, 0x00, 0x00, 0x00, 0xC0, 0xF0, 0x0F, 0x00, 0x80, 
  0xFD, 0xE3, 0x07, 0xC0, 0x03, 0x04, 0x3C, 0x00, 0xF0, 0x0F, 0x00, 0x80, 
  0x3F, 0x06, 0x00, 0x00, 0xE4, 0x3F, 0x00, 0x00, 0x00, 0x06, 0x00, 0x00, 
  0x00, 0xC0, 0x7F, 0x00, 0x00, 0x00, 0xFB, 0xFC, 0x00, 0x80, 0x0F, 0x04, 
  0x3F, 0x00, 0xF8, 0x1F, 0x00, 0x00, 0x00, 0x06, 0x00, 0x00, 0x8E, 0x0F, 
  0x00, 0x00, 0x00, 0x06, 0x00, 0x00, 0x00, 0x80, 0x0F, 0x00, 0x00, 0x00, 
  0x36, 0x1F, 0x00, 0x00, 0x3E, 0xE4, 0x0F, 0x00, 0xF8, 0x1F, 0x00, 0x00, 
  0x00, 0x07, 0x00, 0x00, 0x07, 0x00, 0x00, 0x00, 0x00, 0x1E, 0x00, 0x00, 
  0x00, 0x00, 0x00, 0x00, 0x00, 0x00, 0xEE, 0x03, 0x00, 0x00, 0xF8, 0xFC, 
  0x03, 0x00, 0xFC, 0x3F, 0x00, 0x00, 0x80, 0x03, 0x00, 0x80, 0x07, 0x00, 
  0x00, 0x00, 0x00, 0x0C, 0x00, 0x00, 0x00, 0x00, 0x00, 0x00, 0x00, 0x00, 
  0xFC, 0x00, 0x00, 0x00, 0xE0, 0x7F, 0x00, 0x00, 0xFC, 0x3F, 0x00, 0x00, 
  0xE0, 0x00, 0x00, 0x00, 0x03, 0x00, 0x00, 0x00, 0x00, 0x0C, 0x00, 0x00, 
  0x00, 0x00, 0x00, 0x00, 0x00, 0x00, 0x18, 0x00, 0x00, 0x00, 0x80, 0x1F, 
  0x00, 0x00, 0xFC, 0x3F, 0x00, 0x00, 0x1B, 0x00, 0x00, 0x00, 0x00, 0x00, 
  0x00, 0x00, 0x00, 0x00, 0x00, 0x00, 0x00, 0x00, 0x00, 0x00, 0x00, 0x00, 
  0x00, 0x00, 0x00, 0x00, 0x00, 0x00, 0x00, 0x00, 0xFC, 0x3F, 0x00, 0x00, 
  0x00, 0x00, 0x00, 0x00, 0x00, 0x00, 0x00, 0x00, 0x00, 0x00, 0x00, 0x00, 
  0x00, 0x00, 0x00, 0x00, 0x00, 0x00, 0x00, 0x00, 0x00, 0x00, 0x00, 0x00, 
  0x00, 0x00, 0xF8, 0x1F, 0x00, 0x00, 0x00, 0x00, 0x00, 0x00, 0x00, 0x00, 
  0x00, 0x00, 0x00, 0x00, 0x00, 0x00, 0x30, 0x01, 0x00, 0x00, 0x00, 0x00, 
  0x00, 0x00, 0x00, 0x00, 0x00, 0x00, 0x00, 0x00, 0xF8, 0x1F, 0x00, 0x00, 
  0x00, 0x00, 0x00, 0x00, 0x00, 0x00, 0x00, 0x00, 0x04, 0x40, 0x00, 0x00, 
  0x30, 0x01, 0x00, 0x00, 0x00, 0x00, 0x00, 0x00, 0x00, 0x00, 0x00, 0x00, 
  0x00, 0x00, 0xF0, 0x0F, 0x00, 0x00, 0x00, 0x00, 0x00, 0x00, 0x00, 0x00, 
  0x00, 0x00, 0x04, 0x00, 0x20, 0x00, 0x50, 0x99, 0x1B, 0x63, 0x00, 0x3C, 
  0x00, 0x00, 0x00, 0x00, 0x00, 0x00, 0x00, 0x00, 0xC0, 0x03, 0x00, 0x00, 
  0x00, 0x00, 0x00, 0xC0, 0x07, 0x10, 0x00, 0x00, 0x8A, 0x59, 0x76, 0x00, 
  0x50, 0xA1, 0xA4, 0x14, 0x00, 0x44, 0x80, 0x00, 0x00, 0xE0, 0x01, 0x00, 
  0x00, 0x00, 0x00, 0x00, 0x00, 0x44, 0x00, 0x01, 0x00, 0x40, 0x00, 0x10, 
  0x00, 0x00, 0x4A, 0x44, 0x21, 0x00, 0x90, 0xB9, 0xA4, 0x27, 0x00, 0x84, 
  0xCC, 0x19, 0x03, 0x20, 0x00, 0x02, 0x00, 0x00, 0x00, 0x00, 0x00, 0x44, 
  0x00, 0x01, 0x00, 0x40, 0x74, 0x1C, 0x00, 0x00, 0x9F, 0x48, 0x22, 0x00, 
  0x90, 0xA5, 0xA4, 0x40, 0x00, 0x84, 0x90, 0xA4, 0x00, 0x20, 0x44, 0x57, 
  0xC6, 0x00, 0x00, 0x00, 0x00, 0x44, 0xC7, 0x19, 0x00, 0xC0, 0x95, 0x12, 
  0x00, 0x00, 0x11, 0x51, 0x24, 0x00, 0x10, 0xB9, 0x24, 0x37, 0x00, 0x84, 
  0x9C, 0x3C, 0x01, 0xE0, 0x28, 0x32, 0x28, 0x00, 0x00, 0x00, 0x00, 0x44, 
  0x29, 0x25, 0x00, 0x40, 0x94, 0x12, 0x00, 0x00, 0xD1, 0x4C, 0x43, 0x00, 
  0x00, 0x00, 0x00, 0x00, 0x00, 0x44, 0x92, 0x04, 0x02, 0x20, 0x10, 0x12, 
  0x4E, 0x00, 0xF0, 0x0F, 0x00, 0x44, 0x29, 0x25, 0x00, 0x40, 0x94, 0x12, 
  0x00, 0x00, 0x00, 0x00, 0x00, 0x00, 0x00, 0x00, 0x00, 0x00, 0x00, 0x3C, 
  0x1C, 0xB9, 0x01, 0x20, 0x28, 0x12, 0x89, 0x00, 0xF0, 0x0F, 0x00, 0x44, 
  0x29, 0x25, 0x00, 0x40, 0x94, 0x1C, 0x00, 0x00, 0x00, 0x00, 0x00, 0x00, 
  0x00, 0x00, 0x00, 0x00, 0x00, 0x00, 0x00, 0x00, 0x00, 0xE0, 0x45, 0x14, 
  0x6E, 0x80, 0xFF, 0xFF, 0x01, 0x38, 0xC9, 0x19, 0x00, 0x00, 0x00, 0x00, 
  0x00, 0x00, 0x00, 0x00, 0x00, 0x00, 0x00, 0x00, 0x00, 0x00, 0x00, 0x00, 
  0x00, 0x00, 0x00, 0x00, 0x00, 0x00, 0x00, 0x80, 0xFF, 0xFF, 0x01, 0x00, 
  0x00, 0x00, 0x00, 0x00, 0x00, 0x00, 0x00, 0x00, 0x00, 0x00, 0x00, 0x00, 
  0x00, 0x00, 0x00, 0x00, 0x00, 0x00, 0x00, 0x00, 0x00, 0x00, 0x00, 0x00, 
  0x00, 0x00, 0xFF, 0xFF, 0x00, 0x00, 0x00, 0x00, 0x00, 0x00, 0x00, 0x00, 
  0x00, 0x00, 0x00, 0x00, 0x00, 0x00, 0x00, 0x00, 0x00, 0x00, 0x00, 0x00, 
  0x00, 0x00, 0x00, 0x00, 0x00, 0x00, 0x00, 0x00, 0xFE, 0x7F, 0x00, 0x00, 
  0x00, 0x00, 0x00, 0x00, 0x00, 0x00, 0x00, 0x00, 0x00, 0x00, 0x00, 0x00, 
  0x00, 0x00, 0x00, 0x00, 0x00, 0x00, 0x00, 0x00, 0x00, 0x00, 0x00, 0x00, 
  0x00, 0x00, 0xFC, 0x3F, 0x00, 0x00, 0x00, 0x00, 0x00, 0x00, 0x00, 0x00, 
  0x00, 0x00, 0x00, 0x00, 0x00, 0x00, 0x00, 0x00, 0x00, 0x00, 0x00, 0x00, 
  0x00, 0x00, 0x00, 0x00, 0x00, 0x00, 0x00, 0x00, 0xF8, 0x1F, 0x00, 0x00, 
  0x00, 0x00, 0x00, 0x00, 0x00, 0x00, 0x00, 0x00, 0x00, 0x00, 0x00, 0x00, 
  0x00, 0x00, 0x00, 0x00, 0x00, 0x00, 0x00, 0x00, 0x00, 0x00, 0x00, 0x00, 
  0x00, 0x00, 0xF0, 0x0F, 0x00, 0x00, 0x00, 0x00, 0x00, 0x00, 0x00, 0x00, 
  0x00, 0x00, 0x00, 0x00, 0x00, 0x00, 0x00, 0x00, 0x00, 0x00, 0x00, 0x00, 
  0x00, 0x00, 0x00, 0x00, 0x00, 0x00, 0x00, 0x00, 0xE0, 0x07, 0x00, 0x00, 
  0x00, 0x00, 0x00, 0x00, 0x00, 0x00, 0x00, 0x00, 0x00, 0x00, 0x00, 0x00, 
  0x00, 0x00, 0x00, 0x00, 0x00, 0x00, 0x00, 0x00, 0x00, 0x00, 0x00, 0x00, 
  0x00, 0x00, 0xC0, 0x03, 0x00, 0x00, 0x00, 0x00, 0x00, 0x00, 0x00, 0x00, 
  0x00, 0x00, 0x00, 0x00, 0x00, 0x00, 0x00, 0x00, 0x00, 0x00, 0x00, 0x00, 
  0x00, 0x00, 0x00, 0x00, 0x00, 0x00, 0x00, 0x00, 0x80, 0x01, 0x00, 0x00, 
  0x00, 0x00, 0x00, 0x00, 0x00, 0x00, 0x00, 0x00, 0x00, 0x00, 0x00, 0x00, 
  0x00, 0x00, 0x00, 0x00, 0x00, 0x00, 0x00, 0x00, 0x00, 0x00, 0x00, 0x00, 
  0x00, 0x00, 0x00, 0x00, 0x00, 0x00, 0x00, 0x00, 0x00, 0x00, 0x00, 0x00, 
  0x00, 0x00, 0x00, 0x00, 0x00, 0x00, 0x00, 0x00, 0x00, 0x00, 0x00, 0x00, 
  0x00, 0x00, 0x00, 0x00, 0x00, 0x00, 0x00, 0x00, 0x00, 0x00, 0x00, 0x00, 
  0x00, 0x00, 0x00, 0x00, 0x00, 0x00, 0x00, 0x00, 0x00, 0x00, 0x00, 0x00, 
  };
